<mxfile host="app.diagrams.net" agent="Mozilla/5.0 (Windows NT 10.0; Win64; x64; rv:129.0) Gecko/20100101 Firefox/129.0" version="24.7.10">
  <diagram name="PÃ¡gina-1" id="XsGrN0wXZ6q8e6cAYOW2">
    <mxGraphModel grid="1" page="1" gridSize="10" guides="1" tooltips="1" connect="1" arrows="1" fold="1" pageScale="1" pageWidth="900" pageHeight="1600" math="0" shadow="0">
      <root>
        <mxCell id="0" />
        <mxCell id="1" parent="0" />
        <mxCell id="0rLFhUsnOiA10Syz2Fss-54" value="" style="whiteSpace=wrap;html=1;" vertex="1" parent="1">
          <mxGeometry x="40" y="-1480" width="800" height="1120" as="geometry" />
        </mxCell>
        <mxCell id="xpsCJIyF4lrjVD0eYZhk-1" value="" style="rounded=0;whiteSpace=wrap;html=1;rotation=-90;strokeWidth=2;" vertex="1" parent="1">
          <mxGeometry x="-59.23" y="-1173.2" width="1039.14" height="520.05" as="geometry" />
        </mxCell>
        <mxCell id="xpsCJIyF4lrjVD0eYZhk-2" value="ADMIN" style="shape=umlActor;verticalLabelPosition=top;verticalAlign=bottom;html=1;outlineConnect=0;aspect=fixed;strokeWidth=3;labelPosition=center;align=center;fontSize=16;" vertex="1" parent="1">
          <mxGeometry x="81.49000000000001" y="-1167.79" width="70" height="140" as="geometry" />
        </mxCell>
        <mxCell id="xpsCJIyF4lrjVD0eYZhk-3" value="&lt;div style=&quot;font-size: 13px;&quot;&gt;&lt;font style=&quot;font-size: 16px;&quot;&gt;CLIENTE&lt;/font&gt;&lt;/div&gt;" style="shape=umlActor;verticalLabelPosition=top;verticalAlign=bottom;html=1;outlineConnect=0;aspect=fixed;strokeWidth=3;labelPosition=center;align=center;" vertex="1" parent="1">
          <mxGeometry x="740" y="-1167.79" width="70" height="140" as="geometry" />
        </mxCell>
        <mxCell id="xpsCJIyF4lrjVD0eYZhk-4" value="BODEGUERO" style="shape=umlActor;verticalLabelPosition=bottom;verticalAlign=top;html=1;outlineConnect=0;aspect=fixed;strokeWidth=3;fontSize=16;" vertex="1" parent="1">
          <mxGeometry x="81.49000000000001" y="-647.74" width="70" height="140" as="geometry" />
        </mxCell>
        <mxCell id="xpsCJIyF4lrjVD0eYZhk-5" value="&lt;font style=&quot;font-size: 16px;&quot;&gt;CAJERO&lt;/font&gt;" style="shape=umlActor;verticalLabelPosition=bottom;verticalAlign=top;html=1;outlineConnect=0;aspect=fixed;strokeWidth=3;" vertex="1" parent="1">
          <mxGeometry x="740" y="-647.74" width="70" height="140" as="geometry" />
        </mxCell>
        <mxCell id="xpsCJIyF4lrjVD0eYZhk-6" value="REGISTRAR, MODIFICAR, ELIMINAR USUARIOS" style="ellipse;whiteSpace=wrap;html=1;strokeWidth=2;" vertex="1" parent="1">
          <mxGeometry x="241.49" y="-1420" width="170" height="80" as="geometry" />
        </mxCell>
        <mxCell id="xpsCJIyF4lrjVD0eYZhk-7" value="" style="endArrow=classic;html=1;rounded=0;entryX=0.034;entryY=0.635;entryDx=0;entryDy=0;entryPerimeter=0;strokeWidth=2;" edge="1" parent="1" source="xpsCJIyF4lrjVD0eYZhk-2" target="xpsCJIyF4lrjVD0eYZhk-6">
          <mxGeometry width="50" height="50" relative="1" as="geometry">
            <mxPoint x="191.49" y="-1087" as="sourcePoint" />
            <mxPoint x="241.49" y="-1137" as="targetPoint" />
          </mxGeometry>
        </mxCell>
        <mxCell id="xpsCJIyF4lrjVD0eYZhk-9" value="INICIAR SESION" style="ellipse;whiteSpace=wrap;html=1;fontSize=15;strokeWidth=2;" vertex="1" parent="1">
          <mxGeometry x="378" y="-760" width="144.65" height="60" as="geometry" />
        </mxCell>
        <mxCell id="0rLFhUsnOiA10Syz2Fss-2" value="&lt;div&gt;RECIBIR ORDEN&amp;nbsp;&lt;/div&gt;&lt;div&gt;DE VENTA&lt;/div&gt;" style="ellipse;whiteSpace=wrap;html=1;strokeWidth=2;" vertex="1" parent="1">
          <mxGeometry x="260" y="-490" width="170" height="80" as="geometry" />
        </mxCell>
        <mxCell id="0rLFhUsnOiA10Syz2Fss-3" value="ADMINISTRAR STOCK INVENTARIO" style="ellipse;whiteSpace=wrap;html=1;strokeWidth=2;" vertex="1" parent="1">
          <mxGeometry x="230" y="-680" width="170" height="80" as="geometry" />
        </mxCell>
        <mxCell id="0rLFhUsnOiA10Syz2Fss-6" value="&lt;div&gt;AGREGAR, EDITAR,&lt;/div&gt;&lt;div&gt;ELIMINAR PRODUCTO&lt;/div&gt;" style="ellipse;whiteSpace=wrap;html=1;strokeWidth=2;" vertex="1" parent="1">
          <mxGeometry x="241.49" y="-587.7399999999999" width="170" height="80" as="geometry" />
        </mxCell>
        <mxCell id="0rLFhUsnOiA10Syz2Fss-7" value="&lt;div&gt;OTORGAR PERMISOS A OTROS USUARIOS&lt;/div&gt;" style="ellipse;whiteSpace=wrap;html=1;strokeWidth=2;" vertex="1" parent="1">
          <mxGeometry x="241.49" y="-1330" width="170" height="80" as="geometry" />
        </mxCell>
        <mxCell id="0rLFhUsnOiA10Syz2Fss-12" value="" style="endArrow=classic;html=1;rounded=0;entryX=0;entryY=0.5;entryDx=0;entryDy=0;strokeWidth=2;" edge="1" parent="1" source="xpsCJIyF4lrjVD0eYZhk-2" target="0rLFhUsnOiA10Syz2Fss-7">
          <mxGeometry width="50" height="50" relative="1" as="geometry">
            <mxPoint x="131.49" y="-857" as="sourcePoint" />
            <mxPoint x="181.49" y="-907" as="targetPoint" />
          </mxGeometry>
        </mxCell>
        <mxCell id="0rLFhUsnOiA10Syz2Fss-13" value="" style="endArrow=classic;html=1;rounded=0;entryX=0;entryY=0;entryDx=0;entryDy=0;strokeWidth=2;jumpStyle=none;edgeStyle=orthogonalEdgeStyle;" edge="1" parent="1" source="xpsCJIyF4lrjVD0eYZhk-2" target="xpsCJIyF4lrjVD0eYZhk-9">
          <mxGeometry width="50" height="50" relative="1" as="geometry">
            <mxPoint x="141.49" y="-787" as="sourcePoint" />
            <mxPoint x="191.49" y="-837" as="targetPoint" />
            <Array as="points">
              <mxPoint x="122" y="-780" />
              <mxPoint x="399" y="-780" />
            </Array>
          </mxGeometry>
        </mxCell>
        <mxCell id="0rLFhUsnOiA10Syz2Fss-14" value="" style="endArrow=classic;html=1;rounded=0;entryX=0;entryY=1;entryDx=0;entryDy=0;strokeWidth=2;edgeStyle=orthogonalEdgeStyle;" edge="1" parent="1" source="xpsCJIyF4lrjVD0eYZhk-4" target="xpsCJIyF4lrjVD0eYZhk-9">
          <mxGeometry width="50" height="50" relative="1" as="geometry">
            <mxPoint x="181.49" y="-667" as="sourcePoint" />
            <mxPoint x="231.49" y="-717" as="targetPoint" />
            <Array as="points">
              <mxPoint x="122" y="-690" />
              <mxPoint x="399" y="-690" />
            </Array>
          </mxGeometry>
        </mxCell>
        <mxCell id="0rLFhUsnOiA10Syz2Fss-15" value="" style="endArrow=classic;html=1;rounded=0;entryX=1;entryY=1;entryDx=0;entryDy=0;strokeWidth=2;edgeStyle=orthogonalEdgeStyle;exitX=0.5;exitY=0;exitDx=0;exitDy=0;exitPerimeter=0;" edge="1" parent="1" source="xpsCJIyF4lrjVD0eYZhk-5" target="xpsCJIyF4lrjVD0eYZhk-9">
          <mxGeometry width="50" height="50" relative="1" as="geometry">
            <mxPoint x="791.49" y="-727" as="sourcePoint" />
            <mxPoint x="841.49" y="-777" as="targetPoint" />
            <Array as="points">
              <mxPoint x="775" y="-690" />
              <mxPoint x="510" y="-690" />
              <mxPoint x="510" y="-739" />
            </Array>
          </mxGeometry>
        </mxCell>
        <mxCell id="0rLFhUsnOiA10Syz2Fss-16" value="" style="endArrow=classic;html=1;rounded=0;entryX=1;entryY=0;entryDx=0;entryDy=0;strokeWidth=2;edgeStyle=orthogonalEdgeStyle;" edge="1" parent="1" source="xpsCJIyF4lrjVD0eYZhk-3" target="xpsCJIyF4lrjVD0eYZhk-9">
          <mxGeometry width="50" height="50" relative="1" as="geometry">
            <mxPoint x="761.49" y="-867" as="sourcePoint" />
            <mxPoint x="811.49" y="-917" as="targetPoint" />
            <Array as="points">
              <mxPoint x="775" y="-810" />
              <mxPoint x="501" y="-810" />
            </Array>
          </mxGeometry>
        </mxCell>
        <mxCell id="0rLFhUsnOiA10Syz2Fss-17" value="" style="endArrow=classic;html=1;rounded=0;entryX=0;entryY=0.5;entryDx=0;entryDy=0;strokeWidth=2;" edge="1" parent="1" source="xpsCJIyF4lrjVD0eYZhk-4" target="0rLFhUsnOiA10Syz2Fss-6">
          <mxGeometry width="50" height="50" relative="1" as="geometry">
            <mxPoint x="121.49000000000001" y="-387" as="sourcePoint" />
            <mxPoint x="171.49" y="-437" as="targetPoint" />
          </mxGeometry>
        </mxCell>
        <mxCell id="0rLFhUsnOiA10Syz2Fss-20" value="" style="endArrow=classic;html=1;rounded=0;strokeWidth=2;entryX=0;entryY=0.5;entryDx=0;entryDy=0;" edge="1" parent="1" source="xpsCJIyF4lrjVD0eYZhk-4" target="0rLFhUsnOiA10Syz2Fss-3">
          <mxGeometry width="50" height="50" relative="1" as="geometry">
            <mxPoint x="71.49000000000001" y="-377" as="sourcePoint" />
            <mxPoint x="121.49000000000001" y="-427" as="targetPoint" />
          </mxGeometry>
        </mxCell>
        <mxCell id="0rLFhUsnOiA10Syz2Fss-21" value="" style="endArrow=classic;html=1;rounded=0;entryX=0;entryY=0.5;entryDx=0;entryDy=0;strokeWidth=2;" edge="1" parent="1" source="xpsCJIyF4lrjVD0eYZhk-4" target="0rLFhUsnOiA10Syz2Fss-2">
          <mxGeometry width="50" height="50" relative="1" as="geometry">
            <mxPoint x="121.49000000000001" y="-307" as="sourcePoint" />
            <mxPoint x="171.49" y="-357" as="targetPoint" />
          </mxGeometry>
        </mxCell>
        <mxCell id="0rLFhUsnOiA10Syz2Fss-23" value="&lt;div&gt;INGRESAR VENTA&lt;/div&gt;&lt;div&gt;CLIENTE (WEB, PRESENCIAL)&lt;br&gt;&lt;/div&gt;" style="ellipse;whiteSpace=wrap;html=1;strokeWidth=2;" vertex="1" parent="1">
          <mxGeometry x="500" y="-670" width="170" height="80" as="geometry" />
        </mxCell>
        <mxCell id="0rLFhUsnOiA10Syz2Fss-24" value="INGRESAR COMPRA PROVEEDOR" style="ellipse;whiteSpace=wrap;html=1;strokeWidth=2;" vertex="1" parent="1">
          <mxGeometry x="241.49" y="-870" width="170" height="80" as="geometry" />
        </mxCell>
        <mxCell id="0rLFhUsnOiA10Syz2Fss-27" value="&lt;div&gt;AGREGAR, EDITAR,&amp;nbsp;&lt;/div&gt;&lt;div&gt;ELIMINAR PROVEEDOR&lt;/div&gt;" style="ellipse;whiteSpace=wrap;html=1;strokeWidth=2;" vertex="1" parent="1">
          <mxGeometry x="241.49" y="-1240" width="170" height="80" as="geometry" />
        </mxCell>
        <mxCell id="0rLFhUsnOiA10Syz2Fss-29" value="&lt;div&gt;EDITAR, CONFIRMAR&lt;/div&gt;&lt;div&gt;ORDEN&lt;/div&gt;&lt;div&gt;DE COMPRA&lt;/div&gt;" style="ellipse;whiteSpace=wrap;html=1;strokeWidth=2;" vertex="1" parent="1">
          <mxGeometry x="490" y="-1060" width="170" height="80" as="geometry" />
        </mxCell>
        <mxCell id="0rLFhUsnOiA10Syz2Fss-30" value="AGREGAR PRODUCTO AL CARRITO" style="ellipse;whiteSpace=wrap;html=1;strokeWidth=2;" vertex="1" parent="1">
          <mxGeometry x="500" y="-1173.2" width="170" height="80" as="geometry" />
        </mxCell>
        <mxCell id="0rLFhUsnOiA10Syz2Fss-31" value="&lt;div&gt;SELECCIONAR&lt;/div&gt;&lt;div&gt;PRODUCTO&lt;/div&gt;" style="ellipse;whiteSpace=wrap;html=1;strokeWidth=2;" vertex="1" parent="1">
          <mxGeometry x="500" y="-1290" width="170" height="80" as="geometry" />
        </mxCell>
        <mxCell id="0rLFhUsnOiA10Syz2Fss-32" value="&lt;div&gt;REGISTRARSE&lt;/div&gt;" style="ellipse;whiteSpace=wrap;html=1;strokeWidth=2;" vertex="1" parent="1">
          <mxGeometry x="490" y="-1410" width="170" height="80" as="geometry" />
        </mxCell>
        <mxCell id="0rLFhUsnOiA10Syz2Fss-33" value="" style="endArrow=classic;html=1;rounded=0;strokeWidth=2;entryX=1;entryY=0.5;entryDx=0;entryDy=0;" edge="1" parent="1" source="xpsCJIyF4lrjVD0eYZhk-3" target="0rLFhUsnOiA10Syz2Fss-32">
          <mxGeometry width="50" height="50" relative="1" as="geometry">
            <mxPoint x="871.49" y="-1117.79" as="sourcePoint" />
            <mxPoint x="921.49" y="-1167.79" as="targetPoint" />
          </mxGeometry>
        </mxCell>
        <mxCell id="0rLFhUsnOiA10Syz2Fss-34" value="" style="endArrow=classic;html=1;rounded=0;strokeWidth=2;entryX=1;entryY=0.5;entryDx=0;entryDy=0;" edge="1" parent="1" source="xpsCJIyF4lrjVD0eYZhk-3" target="0rLFhUsnOiA10Syz2Fss-31">
          <mxGeometry width="50" height="50" relative="1" as="geometry">
            <mxPoint x="911.49" y="-1062.79" as="sourcePoint" />
            <mxPoint x="961.49" y="-1112.79" as="targetPoint" />
          </mxGeometry>
        </mxCell>
        <mxCell id="0rLFhUsnOiA10Syz2Fss-35" value="" style="endArrow=classic;html=1;rounded=0;strokeWidth=2;entryX=1;entryY=0.5;entryDx=0;entryDy=0;" edge="1" parent="1" source="xpsCJIyF4lrjVD0eYZhk-3" target="0rLFhUsnOiA10Syz2Fss-30">
          <mxGeometry width="50" height="50" relative="1" as="geometry">
            <mxPoint x="801.49" y="-927.79" as="sourcePoint" />
            <mxPoint x="851.49" y="-977.79" as="targetPoint" />
          </mxGeometry>
        </mxCell>
        <mxCell id="0rLFhUsnOiA10Syz2Fss-36" value="" style="endArrow=classic;html=1;rounded=0;strokeWidth=2;entryX=1;entryY=0.5;entryDx=0;entryDy=0;" edge="1" parent="1" source="xpsCJIyF4lrjVD0eYZhk-3" target="0rLFhUsnOiA10Syz2Fss-29">
          <mxGeometry width="50" height="50" relative="1" as="geometry">
            <mxPoint x="841.49" y="-927" as="sourcePoint" />
            <mxPoint x="891.49" y="-977" as="targetPoint" />
          </mxGeometry>
        </mxCell>
        <mxCell id="0rLFhUsnOiA10Syz2Fss-38" value="" style="endArrow=classic;html=1;rounded=0;strokeWidth=2;entryX=0;entryY=0.5;entryDx=0;entryDy=0;" edge="1" parent="1" source="xpsCJIyF4lrjVD0eYZhk-2" target="0rLFhUsnOiA10Syz2Fss-27">
          <mxGeometry width="50" height="50" relative="1" as="geometry">
            <mxPoint x="141.49" y="-947.7900000000001" as="sourcePoint" />
            <mxPoint x="191.49" y="-997.79" as="targetPoint" />
          </mxGeometry>
        </mxCell>
        <mxCell id="0rLFhUsnOiA10Syz2Fss-42" value="" style="endArrow=classic;html=1;rounded=0;strokeWidth=2;entryX=0.988;entryY=0.613;entryDx=0;entryDy=0;entryPerimeter=0;" edge="1" parent="1" source="xpsCJIyF4lrjVD0eYZhk-5" target="0rLFhUsnOiA10Syz2Fss-23">
          <mxGeometry width="50" height="50" relative="1" as="geometry">
            <mxPoint x="831.49" y="-367" as="sourcePoint" />
            <mxPoint x="881.49" y="-417" as="targetPoint" />
          </mxGeometry>
        </mxCell>
        <mxCell id="0rLFhUsnOiA10Syz2Fss-55" value="&lt;div&gt;SELECCIONAR DEGUSTACIÃN&lt;/div&gt;&lt;div&gt;PRESENCIAL&lt;/div&gt;" style="ellipse;whiteSpace=wrap;html=1;strokeWidth=2;" vertex="1" parent="1">
          <mxGeometry x="490" y="-940" width="170" height="80" as="geometry" />
        </mxCell>
        <mxCell id="0rLFhUsnOiA10Syz2Fss-56" value="" style="endArrow=classic;html=1;rounded=0;strokeWidth=2;entryX=1;entryY=0.5;entryDx=0;entryDy=0;" edge="1" parent="1" source="xpsCJIyF4lrjVD0eYZhk-3" target="0rLFhUsnOiA10Syz2Fss-55">
          <mxGeometry width="50" height="50" relative="1" as="geometry">
            <mxPoint x="781" y="-1000" as="sourcePoint" />
            <mxPoint x="680" y="-927" as="targetPoint" />
          </mxGeometry>
        </mxCell>
        <mxCell id="Ko4Ym2639Jlbs7K9KbIQ-1" value="" style="endArrow=classic;html=1;rounded=0;entryX=0;entryY=0.5;entryDx=0;entryDy=0;strokeWidth=2;" edge="1" parent="1" source="xpsCJIyF4lrjVD0eYZhk-2" target="0rLFhUsnOiA10Syz2Fss-24">
          <mxGeometry width="50" height="50" relative="1" as="geometry">
            <mxPoint x="-90" y="-870" as="sourcePoint" />
            <mxPoint x="-40" y="-920" as="targetPoint" />
          </mxGeometry>
        </mxCell>
        <mxCell id="Ko4Ym2639Jlbs7K9KbIQ-2" value="" style="endArrow=classic;html=1;rounded=0;entryX=0;entryY=0;entryDx=0;entryDy=0;strokeWidth=2;" edge="1" parent="1" source="xpsCJIyF4lrjVD0eYZhk-2" target="0rLFhUsnOiA10Syz2Fss-3">
          <mxGeometry width="50" height="50" relative="1" as="geometry">
            <mxPoint x="180" y="-890" as="sourcePoint" />
            <mxPoint x="270" y="-762" as="targetPoint" />
          </mxGeometry>
        </mxCell>
        <mxCell id="Ko4Ym2639Jlbs7K9KbIQ-3" value="&lt;div&gt;INGRESAR ENTREGA&lt;/div&gt;&lt;div&gt;DE PEDIDO&lt;br&gt;&lt;/div&gt;" style="ellipse;whiteSpace=wrap;html=1;strokeWidth=2;" vertex="1" parent="1">
          <mxGeometry x="510" y="-570" width="170" height="80" as="geometry" />
        </mxCell>
        <mxCell id="Ko4Ym2639Jlbs7K9KbIQ-4" value="" style="endArrow=classic;html=1;rounded=0;strokeWidth=2;entryX=1;entryY=0.5;entryDx=0;entryDy=0;" edge="1" parent="1" source="xpsCJIyF4lrjVD0eYZhk-5" target="Ko4Ym2639Jlbs7K9KbIQ-3">
          <mxGeometry width="50" height="50" relative="1" as="geometry">
            <mxPoint x="750" y="-582" as="sourcePoint" />
            <mxPoint x="678" y="-611" as="targetPoint" />
          </mxGeometry>
        </mxCell>
        <mxCell id="Ko4Ym2639Jlbs7K9KbIQ-8" value="" style="endArrow=classic;html=1;rounded=0;exitX=0;exitY=0.5;exitDx=0;exitDy=0;entryX=1;entryY=0;entryDx=0;entryDy=0;strokeWidth=2;" edge="1" parent="1" source="0rLFhUsnOiA10Syz2Fss-23" target="0rLFhUsnOiA10Syz2Fss-2">
          <mxGeometry width="50" height="50" relative="1" as="geometry">
            <mxPoint x="520" y="-440" as="sourcePoint" />
            <mxPoint x="500" y="-500" as="targetPoint" />
          </mxGeometry>
        </mxCell>
        <mxCell id="Ko4Ym2639Jlbs7K9KbIQ-9" value="EXTEND" style="edgeLabel;html=1;align=center;verticalAlign=middle;resizable=0;points=[];" connectable="0" vertex="1" parent="Ko4Ym2639Jlbs7K9KbIQ-8">
          <mxGeometry x="0.1992" y="2" relative="1" as="geometry">
            <mxPoint x="14" y="-6" as="offset" />
          </mxGeometry>
        </mxCell>
        <mxCell id="Ko4Ym2639Jlbs7K9KbIQ-12" value="&lt;div&gt;GENERAR INTELIGENCIA&lt;/div&gt;&lt;div&gt;DE NEGOCIOS&lt;br&gt;&lt;/div&gt;" style="ellipse;whiteSpace=wrap;html=1;strokeWidth=2;" vertex="1" parent="1">
          <mxGeometry x="241.49" y="-1050" width="170" height="80" as="geometry" />
        </mxCell>
        <mxCell id="Ko4Ym2639Jlbs7K9KbIQ-13" value="&lt;div&gt;VISUALIZAR INFORMES&lt;/div&gt;&lt;div&gt;INTELIGENCIA DE NEGOCIOS&lt;br&gt;&lt;/div&gt;" style="ellipse;whiteSpace=wrap;html=1;strokeWidth=2;" vertex="1" parent="1">
          <mxGeometry x="241.49" y="-960" width="170" height="80" as="geometry" />
        </mxCell>
        <mxCell id="fVG3QX-Rw_zGWBBI-nGA-1" value="" style="endArrow=classic;html=1;rounded=0;strokeWidth=2;entryX=0;entryY=0.5;entryDx=0;entryDy=0;" edge="1" parent="1" source="xpsCJIyF4lrjVD0eYZhk-2" target="Ko4Ym2639Jlbs7K9KbIQ-12">
          <mxGeometry width="50" height="50" relative="1" as="geometry">
            <mxPoint x="140" y="-1075.29" as="sourcePoint" />
            <mxPoint x="230" y="-1120.29" as="targetPoint" />
          </mxGeometry>
        </mxCell>
        <mxCell id="fVG3QX-Rw_zGWBBI-nGA-2" value="" style="endArrow=classic;html=1;rounded=0;strokeWidth=2;entryX=0;entryY=0.5;entryDx=0;entryDy=0;" edge="1" parent="1" source="xpsCJIyF4lrjVD0eYZhk-2" target="Ko4Ym2639Jlbs7K9KbIQ-13">
          <mxGeometry width="50" height="50" relative="1" as="geometry">
            <mxPoint x="170" y="-1010" as="sourcePoint" />
            <mxPoint x="260" y="-1055" as="targetPoint" />
          </mxGeometry>
        </mxCell>
        <mxCell id="fVG3QX-Rw_zGWBBI-nGA-3" value="REALIZAR MINERÃA DE DATOS" style="ellipse;whiteSpace=wrap;html=1;strokeWidth=2;" vertex="1" parent="1">
          <mxGeometry x="241.49" y="-1150" width="170" height="80" as="geometry" />
        </mxCell>
        <mxCell id="fVG3QX-Rw_zGWBBI-nGA-4" value="" style="endArrow=classic;html=1;rounded=0;strokeWidth=2;entryX=0;entryY=0.5;entryDx=0;entryDy=0;" edge="1" parent="1" source="xpsCJIyF4lrjVD0eYZhk-2" target="fVG3QX-Rw_zGWBBI-nGA-3">
          <mxGeometry width="50" height="50" relative="1" as="geometry">
            <mxPoint x="170" y="-1099.2" as="sourcePoint" />
            <mxPoint x="260" y="-1173.2" as="targetPoint" />
          </mxGeometry>
        </mxCell>
      </root>
    </mxGraphModel>
  </diagram>
</mxfile>
